<svg width="137" height="20" viewBox="0 0 137 20" fill="none" xmlns="http://www.w3.org/2000/svg">
<path d="M4.60599 5.2H1.04999V15H2.35199V11.5H4.60599C6.41199 11.5 7.76999 10.128 7.76999 8.35C7.76999 6.558 6.41199 5.2 4.60599 5.2ZM4.60599 10.282H2.35199V6.418H4.60599C5.68399 6.418 6.48199 7.23 6.48199 8.35C6.48199 9.456 5.68399 10.282 4.60599 10.282ZM11.9386 15.182C13.9826 15.182 15.6346 13.572 15.6346 11.5C15.6346 9.428 13.9826 7.818 11.9386 7.818C9.8946 7.818 8.2566 9.428 8.2566 11.5C8.2566 13.572 9.8946 15.182 11.9386 15.182ZM11.9386 13.992C10.5526 13.992 9.4746 12.914 9.4746 11.5C9.4746 10.086 10.5526 9.008 11.9386 9.008C13.3386 9.008 14.4166 10.086 14.4166 11.5C14.4166 12.914 13.3386 13.992 11.9386 13.992ZM25.043 8L23.503 13.334L21.851 8H20.675L19.023 13.32L17.483 8H16.209L18.379 15H19.625L21.263 9.82L22.901 15H24.147L26.317 8H25.043ZM28.151 12.06H34.017C34.045 11.878 34.059 11.696 34.059 11.514C34.059 9.554 32.687 7.818 30.573 7.818C28.389 7.818 26.905 9.428 26.905 11.5C26.905 13.6 28.403 15.182 30.657 15.182C32.057 15.182 33.121 14.552 33.737 13.6L32.701 13.012C32.351 13.586 31.651 14.034 30.685 14.034C29.383 14.034 28.389 13.32 28.151 12.06ZM30.573 8.966C31.623 8.966 32.617 9.61 32.827 10.996H28.151C28.347 9.778 29.257 8.966 30.573 8.966ZM36.6772 9.176V8H35.4592V15H36.6772V11.29C36.6772 9.638 37.8112 9.106 38.8612 9.148V7.874C37.9792 7.874 37.1252 8.196 36.6772 9.176ZM40.5241 12.06H46.3901C46.4181 11.878 46.4321 11.696 46.4321 11.514C46.4321 9.554 45.0601 7.818 42.9461 7.818C40.7621 7.818 39.2781 9.428 39.2781 11.5C39.2781 13.6 40.7761 15.182 43.0301 15.182C44.4301 15.182 45.4941 14.552 46.1101 13.6L45.0741 13.012C44.7241 13.586 44.0241 14.034 43.0581 14.034C41.7561 14.034 40.7621 13.32 40.5241 12.06ZM42.9461 8.966C43.9961 8.966 44.9901 9.61 45.2001 10.996H40.5241C40.7201 9.778 41.6301 8.966 42.9461 8.966ZM53.6145 5.2V9.204C53.0545 8.35 52.1585 7.818 50.9685 7.818C49.0225 7.818 47.4265 9.428 47.4265 11.5C47.4265 13.572 49.0225 15.182 50.9685 15.182C52.1585 15.182 53.0545 14.65 53.6145 13.796V15H54.8325V5.2H53.6145ZM51.1225 14.006C49.7225 14.006 48.6445 12.928 48.6445 11.5C48.6445 10.072 49.7225 8.994 51.1225 8.994C52.5365 8.994 53.6145 10.072 53.6145 11.5C53.6145 12.928 52.5365 14.006 51.1225 14.006ZM64.0419 7.818C62.8519 7.818 61.9559 8.35 61.3959 9.204V5.2H60.1779V15H61.3959V13.796C61.9559 14.65 62.8519 15.182 64.0419 15.182C65.9879 15.182 67.5839 13.572 67.5839 11.5C67.5839 9.428 65.9879 7.818 64.0419 7.818ZM63.8879 14.006C62.4739 14.006 61.3959 12.928 61.3959 11.5C61.3959 10.072 62.4739 8.994 63.8879 8.994C65.2879 8.994 66.3659 10.072 66.3659 11.5C66.3659 12.928 65.2879 14.006 63.8879 14.006ZM73.6498 8L71.6338 13.488L69.2538 8H67.9518L71.0038 14.972L70.8778 15.238C70.5138 16.162 69.9258 16.736 68.9878 16.666V17.8C70.4158 17.898 71.5078 17.002 72.0958 15.434L74.9518 8H73.6498ZM76.7389 9.652C77.2569 9.652 77.6489 9.246 77.6489 8.742C77.6489 8.238 77.2569 7.832 76.7389 7.832C76.2349 7.832 75.8289 8.238 75.8289 8.742C75.8289 9.246 76.2349 9.652 76.7389 9.652ZM76.7389 15.154C77.2569 15.154 77.6489 14.748 77.6489 14.244C77.6489 13.74 77.2569 13.334 76.7389 13.334C76.2349 13.334 75.8289 13.74 75.8289 14.244C75.8289 14.748 76.2349 15.154 76.7389 15.154Z" fill="#777E91"/>
<path d="M106.401 12.5563C107.804 12.5563 108.793 11.8015 108.793 10.5662C108.793 9.21747 107.682 8.86833 106.638 8.54031C105.64 8.23859 105.385 8.02307 105.385 7.61617C105.385 7.23902 105.706 6.95583 106.252 6.95583C106.921 6.95583 107.278 7.30497 107.514 7.80497L108.606 7.17264C108.164 6.24635 107.333 5.68988 106.25 5.68988C105.12 5.68988 104.084 6.40669 104.084 7.65152C104.084 8.90626 105.063 9.33255 106.071 9.62307C107.051 9.90583 107.493 10.0946 107.493 10.5851C107.493 10.9528 107.22 11.283 106.438 11.283C105.619 11.283 105.157 10.8869 104.922 10.2735L103.81 10.9244C104.168 11.9054 105.054 12.5563 106.401 12.5563Z" fill="white"/>
<path d="M111.855 7.57605C111.165 7.57605 110.668 7.83079 110.329 8.2657V7.70838H109.112V14.3105H110.327V11.8679C110.666 12.3015 111.166 12.5575 111.853 12.5575C113.115 12.5575 114.151 11.4726 114.151 10.0674C114.151 8.66226 113.117 7.57605 111.855 7.57605ZM111.629 11.3963C110.884 11.3963 110.329 10.8584 110.329 10.0661C110.329 9.27389 110.884 8.73639 111.629 8.73639C112.382 8.73639 112.938 9.27389 112.938 10.0661C112.938 10.8584 112.382 11.3963 111.629 11.3963Z" fill="white"/>
<path d="M117.158 7.57608C116.527 7.57608 116.037 7.81185 115.754 8.23642V5.82263H114.539V12.4244H115.754V9.8778C115.754 9.05884 116.197 8.70798 116.789 8.70798C117.335 8.70798 117.721 9.03815 117.721 9.67953V12.4244H118.94V9.52866C118.94 8.27608 118.156 7.57608 117.158 7.57608Z" fill="white"/>
<path d="M120.532 10.5661H124.082C124.113 10.4012 124.129 10.2339 124.13 10.0661C124.13 8.67993 123.141 7.57605 121.747 7.57605C120.268 7.57605 119.26 8.66096 119.26 10.0661C119.26 11.4713 120.258 12.5562 121.841 12.5562C122.746 12.5562 123.451 12.1885 123.894 11.5472L122.915 10.9812C122.707 11.2545 122.331 11.4528 121.86 11.4528C121.219 11.4528 120.701 11.1885 120.532 10.5661ZM120.513 9.62303C120.654 9.01958 121.097 8.67045 121.747 8.67045C122.255 8.67045 122.764 8.94372 122.915 9.62303H120.513Z" fill="white"/>
<path d="M125.722 8.51962V7.70841H124.507V12.4244H125.722V10.17C125.722 9.17867 126.523 8.89677 127.154 8.9722V7.61401C126.56 7.61401 125.965 7.87824 125.722 8.51962Z" fill="white"/>
<path d="M129.721 12.5562C131.106 12.5562 132.217 11.4713 132.217 10.0661C132.217 8.66096 131.106 7.57605 129.721 7.57605C128.337 7.57605 127.235 8.66096 127.235 10.0661C127.235 11.4713 128.336 12.5562 129.721 12.5562ZM129.721 11.3679C129.005 11.3679 128.45 10.8304 128.45 10.0661C128.45 9.30191 129.005 8.76441 129.721 8.76441C130.446 8.76441 131.002 9.30234 131.002 10.0661C131.002 10.8299 130.448 11.3679 129.721 11.3679Z" fill="white"/>
<path d="M135.22 7.57605C134.589 7.57605 134.099 7.81183 133.816 8.23639V7.70838H132.601V12.4243H133.816V9.87777C133.816 9.05881 134.259 8.70795 134.85 8.70795C135.397 8.70795 135.783 9.03812 135.783 9.6795V12.4243H137V9.52864C137 8.27605 136.218 7.57605 135.22 7.57605Z" fill="white"/>
<path d="M98.0069 1.62822V4.94719C98.0068 5.03326 97.9846 5.11786 97.9423 5.19283C97.9 5.2678 97.8391 5.33061 97.7655 5.3752L97.7448 5.38727L96.969 5.83426L92.4526 8.43167L91.9043 8.74676C91.895 8.75084 91.8862 8.7559 91.878 8.76184C91.8439 8.78474 91.8159 8.81569 91.7966 8.85196C91.7772 8.88823 91.7671 8.92871 91.7671 8.96982C91.7671 9.01092 91.7772 9.0514 91.7966 9.08767C91.8159 9.12394 91.8439 9.15489 91.878 9.17779L91.8987 9.18986L92.5172 9.54848L94.6293 10.764L94.6668 10.786C94.6999 10.8089 94.7269 10.8394 94.7456 10.875C94.7643 10.9107 94.774 10.9503 94.774 10.9905C94.774 11.0307 94.7643 11.0703 94.7456 11.106C94.7269 11.1416 94.6999 11.1721 94.6668 11.195L94.6302 11.2157L90.7711 13.439L90.7496 13.4515C90.6765 13.4916 90.5945 13.5125 90.5112 13.5123C90.4366 13.512 90.363 13.4952 90.2957 13.4631L90.2741 13.4519L90.2414 13.4325L88.0034 12.1459L87.2625 11.7196C87.2556 11.7162 87.2487 11.7118 87.2414 11.7075C87.1698 11.6639 87.1105 11.6028 87.069 11.5299C87.0239 11.4545 87 11.3683 87 11.2804V7.81701C86.9999 7.73214 87.0215 7.64865 87.0628 7.57449C87.104 7.50032 87.1636 7.43795 87.2358 7.39331C87.2374 7.39173 87.2393 7.39042 87.2414 7.38943C87.2495 7.38425 87.258 7.37964 87.2668 7.37564L87.2703 7.37305L88.003 6.9515L90.4759 5.52908L93.456 3.81486L97.6164 1.42262C97.6229 1.41803 97.6298 1.41399 97.6371 1.41055C97.6736 1.39018 97.7147 1.3795 97.7565 1.37952C97.7893 1.37946 97.8219 1.38588 97.8523 1.39841C97.8827 1.41095 97.9104 1.42935 97.9337 1.45256C97.957 1.47578 97.9755 1.50335 97.9881 1.53371C98.0007 1.56408 98.0073 1.59663 98.0073 1.62952L98.0069 1.62822Z" fill="white"/>
<path d="M101.483 8.72005V12.1834C101.483 12.2694 101.46 12.3538 101.418 12.4287C101.376 12.5035 101.315 12.5661 101.241 12.6106L101.22 12.6226L100.479 13.0494L99.5431 13.5881L98.0077 14.4713L95.0267 16.1856L90.8672 18.5778C90.8606 18.5822 90.8537 18.5863 90.8465 18.5899C90.8098 18.6101 90.7686 18.6207 90.7267 18.6205C90.6938 18.6205 90.6612 18.6141 90.6308 18.6016C90.6004 18.589 90.5728 18.5706 90.5495 18.5474C90.5262 18.5242 90.5077 18.4966 90.4951 18.4663C90.4824 18.4359 90.4759 18.4034 90.4758 18.3705V15.0515C90.4758 14.9655 90.4979 14.881 90.5402 14.8061C90.5825 14.7313 90.6435 14.6687 90.7172 14.6244C90.7271 14.6179 90.7379 14.6123 90.7478 14.6071L91.5151 14.1653L96.0301 11.5679L96.5711 11.2567L96.606 11.2369L96.6094 11.2347C96.6426 11.2117 96.6696 11.181 96.6883 11.1453C96.707 11.1096 96.7168 11.0698 96.7168 11.0295C96.7164 10.9885 96.7062 10.9482 96.6869 10.9121C96.6676 10.8759 96.6398 10.8449 96.606 10.8218C96.598 10.8165 96.5897 10.8117 96.581 10.8075L95.9655 10.4515L93.8534 9.23557L93.8129 9.21185C93.7806 9.1889 93.7543 9.15855 93.7361 9.12335C93.7179 9.08814 93.7085 9.04911 93.7085 9.00949C93.7085 8.96987 93.7179 8.93083 93.7361 8.89562C93.7543 8.86042 93.7806 8.83007 93.8129 8.80712L93.856 8.78298C93.858 8.78158 93.8602 8.78041 93.8625 8.77952L97.7125 6.56402L97.7426 6.54677C97.8144 6.50927 97.8942 6.48969 97.9752 6.48969C98.0562 6.48969 98.1359 6.50927 98.2077 6.54677L98.2405 6.56574L100.484 7.85626L101.225 8.28298C101.233 8.28652 101.239 8.29054 101.246 8.29504C101.318 8.33846 101.377 8.39945 101.418 8.4722C101.463 8.5479 101.487 8.63429 101.486 8.7222L101.483 8.72005Z" fill="white"/>
</svg>
